<?xml version="1.0" standalone="no"?><!DOCTYPE svg PUBLIC "-//W3C//DTD SVG 1.1//EN" "http://www.w3.org/Graphics/SVG/1.1/DTD/svg11.dtd"><svg t="1760750541581" class="icon" viewBox="0 0 1024 1024" version="1.1" xmlns="http://www.w3.org/2000/svg" p-id="3257" xmlns:xlink="http://www.w3.org/1999/xlink" width="200" height="200"><path d="M304 106.666667h416a106.666667 106.666667 0 0 1 88.768 47.530666l139.968 210.069334a85.333333 85.333333 0 0 1-7.509333 104.32L591.402667 858.453333a106.666667 106.666667 0 0 1-158.805334 0L82.773333 468.565333a85.333333 85.333333 0 0 1-7.509333-104.298666l139.946667-210.069334A106.666667 106.666667 0 0 1 304 106.666667z m0 64a42.666667 42.666667 0 0 0-35.52 19.008l-139.946667 210.090666a21.333333 21.333333 0 0 0 1.877334 26.069334L480.213333 815.722667a42.666667 42.666667 0 0 0 63.530667 0l349.824-389.888a21.333333 21.333333 0 0 0 1.877333-26.069334l-139.946666-210.090666A42.666667 42.666667 0 0 0 720 170.666667h-416z m354.88 285.781333a32 32 0 1 1 47.573333 42.837333l-142.762666 158.592c-23.914667 26.581333-65.493333 30.208-94.08 8.554667a66.858667 66.858667 0 0 1-9.301334-8.533333l-142.762666-158.613334a32 32 0 1 1 47.573333-42.837333l142.762667 158.613333a2.88 2.88 0 0 0 0.405333 0.362667c2.24 1.706667 6.293333 1.344 7.829333-0.362667l142.762667-158.613333z" fill="#000000" p-id="3258"></path></svg>