<?xml version="1.0" standalone="no"?><!DOCTYPE svg PUBLIC "-//W3C//DTD SVG 1.1//EN" "http://www.w3.org/Graphics/SVG/1.1/DTD/svg11.dtd"><svg t="1760750466676" class="icon" viewBox="0 0 1024 1024" version="1.1" xmlns="http://www.w3.org/2000/svg" p-id="2213" xmlns:xlink="http://www.w3.org/1999/xlink" width="200" height="200"><path d="M121 536h543c13.3 0 24-10.7 24-24s-10.7-24-24-24H121c-13.2 0-24 10.8-24 24s10.8 24 24 24zM903 488H762c-13.3 0-24 10.7-24 24s10.7 24 24 24h141c13.2 0 24-10.8 24-24s-10.8-24-24-24zM119.7 382c12.5 0 22.7-10.2 22.7-22.7V214.2c0-39.7 32.2-71.8 71.8-71.8h145.1c12.5 0 22.7-10.2 22.7-22.7S371.8 97 359.3 97H214.2C149.5 97 97 149.5 97 214.2v145.1c0 12.5 10.2 22.7 22.7 22.7zM809.8 97H664.7c-12.5 0-22.7 10.2-22.7 22.7s10.2 22.7 22.7 22.7h145.1c39.7 0 71.8 32.2 71.8 71.8v145.1c0 12.5 10.2 22.7 22.7 22.7s22.7-10.2 22.7-22.7V214.2C927 149.5 874.5 97 809.8 97zM904.3 642c-12.5 0-22.7 10.2-22.7 22.7v145.1c0 39.7-32.2 71.8-71.8 71.8H664.7c-12.5 0-22.7 10.2-22.7 22.7s10.2 22.7 22.7 22.7H812.6C876 925.5 927 873.6 927 809.8V664.7c0-12.5-10.2-22.7-22.7-22.7zM359.3 881.6H214.2c-39.7 0-71.8-32.2-71.8-71.8V664.7c0-12.5-10.2-22.7-22.7-22.7S97 652.2 97 664.7v145.1C97 874.5 149.5 927 214.2 927h145.1c12.5 0 22.7-10.2 22.7-22.7s-10.2-22.7-22.7-22.7z" p-id="2214"></path></svg>