<?xml version="1.0" standalone="no"?><!DOCTYPE svg PUBLIC "-//W3C//DTD SVG 1.1//EN" "http://www.w3.org/Graphics/SVG/1.1/DTD/svg11.dtd"><svg t="1760750491366" class="icon" viewBox="0 0 1024 1024" version="1.1" xmlns="http://www.w3.org/2000/svg" p-id="2512" xmlns:xlink="http://www.w3.org/1999/xlink" width="200" height="200"><path d="M464 960C243.2 960 64 780.8 64 560s179.2-400 400-400c17.6 0 32 14.4 32 32v336h336c17.6 0 32 14.4 32 32 0 220.8-179.2 400-400 400z m-32-734.4c-169.6 16-304 160-304 334.4 0 185.6 150.4 336 336 336 174.4 0 318.4-134.4 334.4-304H464c-17.6 0-32-14.4-32-32V225.6z" fill="#333333" p-id="2513"></path><path d="M928 464H592c-17.6 0-32-14.4-32-32V96c0-17.6 14.4-32 32-32 203.2 0 368 164.8 368 368 0 17.6-14.4 32-32 32z m-304-64h270.4C880 257.6 766.4 144 624 129.6V400z" fill="#333333" p-id="2514"></path></svg>