<?xml version="1.0" standalone="no"?><!DOCTYPE svg PUBLIC "-//W3C//DTD SVG 1.1//EN" "http://www.w3.org/Graphics/SVG/1.1/DTD/svg11.dtd"><svg t="1760750531091" class="icon" viewBox="0 0 1024 1024" version="1.1" xmlns="http://www.w3.org/2000/svg" p-id="2962" xmlns:xlink="http://www.w3.org/1999/xlink" width="200" height="200"><path d="M505.653333 42.666667a341.333333 341.333333 0 1 0 341.333334 341.333333 341.333333 341.333333 0 0 0-341.333334-341.333333z m0 608a266.666667 266.666667 0 1 1 266.666667-266.666667 266.986667 266.986667 0 0 1-266.666667 266.666667z" p-id="2963"></path><path d="M713.12 806.293333l-58.08-58.08a5.6 5.6 0 0 0-3.786667-1.546666H362.08a5.333333 5.333333 0 0 0-3.786667 1.546666l-58.08 58.08a5.333333 5.333333 0 0 0-1.546666 3.786667V976a5.333333 5.333333 0 0 0 5.333333 5.333333h405.333333a5.333333 5.333333 0 0 0 5.333334-5.333333v-165.92a5.333333 5.333333 0 0 0-1.546667-3.786667zM634.666667 906.666667H378.666667a5.333333 5.333333 0 0 1-5.333334-5.333334v-71.253333a5.6 5.6 0 0 1 1.546667-3.786667l3.413333-3.413333a5.6 5.6 0 0 1 3.786667-1.546667h249.173333a5.333333 5.333333 0 0 1 3.733334 1.546667l3.466666 3.466667a5.333333 5.333333 0 0 1 1.546667 3.733333V901.333333a5.333333 5.333333 0 0 1-5.333333 5.333334z" p-id="2964"></path></svg>